<svg xmlns="http://www.w3.org/2000/svg" width="512" height="512" viewBox="0 0 512 512" version="1.1">
	<path d="M 231.500 30.900 C 216.030 35.118, 206.063 40.604, 193.872 51.610 C 180.655 63.543, 179.824 63.894, 162.217 64.990 C 134.915 66.688, 119.699 73.171, 101.635 90.800 C 90.290 101.871, 82.780 113.558, 76.443 130 C 70.936 144.288, 69.667 146.292, 61.772 153.160 C 48.692 164.538, 43.104 170.980, 38.939 179.481 C 32.701 192.213, 31.891 196.963, 32.174 219.165 C 32.410 237.731, 32.306 238.918, 29.555 249 C 26.082 261.727, 25.594 272.779, 28.287 277.745 C 29.366 279.735, 31.916 281.937, 34.880 283.439 C 47.856 290.015, 50.042 294.481, 51.060 316.500 C 51.756 331.559, 52.047 333.264, 56.007 345.500 C 59.946 357.666, 60.240 359.371, 60.590 372.077 C 60.887 382.833, 61.490 387.467, 63.491 394.374 C 72.413 425.160, 96.950 449.744, 127.470 458.476 C 135.953 460.903, 139.566 462.974, 147.404 469.905 C 164.406 484.939, 177.518 490.523, 198.520 491.672 C 216.322 492.646, 232.737 488.402, 235.125 482.209 C 235.914 480.164, 235.630 476.069, 233.967 465.500 C 230.869 445.804, 230.284 421.532, 232.451 402.487 C 235.078 379.389, 241.020 351.491, 245.404 341.669 C 248.353 335.063, 250.870 332.878, 256.209 332.293 C 265.823 331.240, 271.092 338.825, 276.501 361.500 C 281.478 382.367, 285.952 395.066, 294.471 412.500 C 304.306 432.628, 319.784 455.231, 333.650 469.710 C 337.897 474.146, 340.615 473.970, 351.500 468.552 C 356.450 466.089, 364.833 462.086, 370.130 459.657 C 382.018 454.205, 388.958 449.155, 396.600 440.396 C 408.896 426.303, 412.029 423.662, 419.500 421.090 C 431.861 416.833, 433.159 415.312, 437.554 399.939 C 441.203 387.179, 442.558 384.789, 451.762 374.878 C 471.582 353.538, 478.400 336.907, 479.999 306 C 480.440 297.475, 481.296 288.928, 481.901 287.007 C 483.399 282.245, 483.224 273.723, 481.480 266.500 C 479.468 258.167, 479.658 247.987, 482.007 238.187 C 487.359 215.863, 482.155 191.827, 467.416 170.793 C 460.621 161.096, 458.661 156.845, 456.445 147 C 452.882 131.165, 444.932 118.335, 431.898 107.381 C 425.427 101.943, 422.125 98.097, 416.152 89.037 C 401.217 66.384, 385.319 54.225, 363.055 48.426 C 354.900 46.302, 338.838 46.608, 327.489 49.104 C 321.795 50.356, 316.574 50.955, 314.592 50.583 C 312.760 50.240, 307.490 47.668, 302.881 44.868 C 282.238 32.329, 274.601 29.934, 253.500 29.383 C 240.997 29.057, 237.335 29.309, 231.500 30.900 M 233.836 38.919 C 227.158 41.055, 221.448 44.389, 220.576 46.663 C 219.763 48.782, 220.052 49, 225.172 50.146 C 234.314 52.191, 241.613 58.676, 243.952 66.832 C 245.137 70.966, 244.082 70.841, 241.123 66.496 C 236.812 60.166, 228.846 56.906, 222.668 58.944 C 217.643 60.603, 214.455 64.607, 210.022 74.826 C 202.059 93.187, 202.177 97.210, 210.951 106.416 C 214.139 109.762, 217.476 113.932, 218.365 115.683 C 219.255 117.434, 221.524 125.310, 223.408 133.185 C 230.071 161.037, 236.934 172.273, 247.280 172.273 C 250.445 172.273, 251.875 171.684, 253.608 169.669 C 255.933 166.966, 255.971 166.752, 258.021 145 C 260.557 118.074, 270.650 92.425, 285.701 74.653 C 288.890 70.887, 292.346 66.763, 293.380 65.490 C 300.534 56.679, 277.683 46.419, 261.623 51.231 C 259.242 51.945, 255.513 54.390, 252.757 57.047 C 249.304 60.375, 248 61.152, 248 59.881 C 248 56.812, 249.935 52.894, 253.518 48.708 C 255.433 46.471, 257 43.608, 257 42.346 C 257 37.145, 244.956 35.363, 233.836 38.919 M 336 64.276 C 308.712 73.613, 285.434 107.505, 275.668 152.117 C 272.748 165.458, 271.391 182.267, 272.912 186.267 C 273.821 188.658, 274.487 189, 278.243 189 C 285.797 189, 291.994 182.921, 299.380 168.265 C 324.096 119.223, 359.516 91.631, 395.750 93.193 C 400.837 93.413, 404.997 93.347, 404.993 93.046 C 404.978 91.787, 401.040 86.755, 394 78.998 C 385.472 69.603, 379.306 65.982, 372 66.080 C 369.525 66.113, 366.618 66.485, 365.541 66.907 C 364.199 67.432, 361.883 66.780, 358.189 64.836 C 351.486 61.310, 345.136 61.150, 336 64.276 M 135.209 84.556 C 122.856 87.881, 108.971 97.259, 99.665 108.563 C 93.055 116.593, 93.485 117.223, 102.933 113.355 C 109.279 110.756, 121.788 108, 127.235 108 C 133.352 108, 141.564 110.157, 144.517 112.538 C 146.376 114.037, 146.150 114.102, 140.891 113.576 C 128.727 112.360, 117.121 116.626, 108.463 125.494 C 103.674 130.399, 95 142.304, 95 143.971 C 95 144.380, 99.512 145.025, 105.026 145.405 C 128.483 147.020, 147.383 155.679, 167.347 173.957 C 171.662 177.908, 175.411 180.922, 175.678 180.656 C 176.776 179.557, 168.004 167.083, 162.611 162.076 C 159.083 158.800, 159.317 157.595, 163.099 159.551 C 168.835 162.517, 178.849 174.086, 190.623 191.348 C 204.006 210.970, 207.431 215, 210.721 215 C 214.260 215, 215.308 211.044, 214.561 200.500 C 213.501 185.521, 212.186 179.567, 206.504 164.010 C 199.542 144.950, 196.899 132.163, 196.552 115.853 C 196.317 104.810, 196.013 102.828, 194.153 100.215 C 190.310 94.817, 176.974 87.515, 165.540 84.547 C 158.126 82.623, 142.374 82.627, 135.209 84.556 M 390.539 113.093 C 359.781 117.674, 326.865 144.090, 310.488 177.334 C 304.912 188.654, 303.828 194.828, 306.880 197.880 C 309.829 200.829, 314.607 200.591, 319.591 197.246 C 321.841 195.736, 328.856 189.630, 335.180 183.678 C 363.807 156.738, 382.514 147.584, 411.500 146.333 C 422.357 145.864, 425.864 146.098, 432.775 147.751 C 437.623 148.910, 441.287 149.345, 441.624 148.800 C 442.513 147.361, 441.051 141.027, 438.796 136.547 C 430.356 119.782, 410.482 110.123, 390.539 113.093 M 87.251 165.477 C 75.813 168.705, 66.946 175.454, 62.548 184.279 C 58.985 191.429, 59.212 195.631, 63.500 201.864 C 68.660 209.365, 68.355 212.700, 61.577 222.884 C 56.204 230.959, 49.133 248.788, 50.456 250.928 C 50.797 251.481, 56.402 249.164, 63.358 245.593 C 84.943 234.511, 98.559 231.092, 121.343 231.035 C 142.947 230.980, 158.579 234.786, 179.232 245.127 C 184.584 247.807, 190.086 250, 191.459 250 C 198.170 250, 198.790 238.489, 192.726 226.449 C 187.950 216.966, 181.717 208.924, 171.652 199.261 C 155.010 183.284, 136.364 171.854, 119 166.986 C 109.132 164.219, 94.222 163.510, 87.251 165.477 M 395 167.553 C 376.984 171.416, 358.624 180.952, 340.833 195.685 C 331.168 203.688, 327 209.731, 327 215.737 C 327 226.402, 330.863 226.625, 349.773 217.049 C 373.795 204.884, 392.724 200.238, 413.922 201.303 C 435.050 202.365, 450.929 208.904, 463.702 221.801 C 472.283 230.466, 472.914 230.107, 471.230 217.523 C 468.477 196.948, 458.408 180.983, 442.841 172.510 C 431.639 166.413, 410.520 164.225, 395 167.553 M 251 212.078 C 243.987 213.301, 232.958 218.540, 226.370 223.778 C 219.786 229.012, 211.635 241.206, 208.979 249.794 C 202.480 270.808, 210.662 294.808, 228.718 307.693 C 256.004 327.163, 293.952 317.099, 309.189 286.352 C 313.154 278.349, 313.465 277.117, 313.833 267.943 C 314.300 256.321, 312.251 248.113, 306.484 238.500 C 301.917 230.886, 293.136 221.936, 286.910 218.547 C 275.751 212.474, 262.459 210.080, 251 212.078 M 383.729 220.512 C 364.055 223.819, 339.237 234.795, 336.160 241.549 C 334.532 245.122, 334.717 249.575, 336.571 251.429 C 338.644 253.501, 342.711 253.411, 354.091 251.039 C 393.128 242.902, 426.405 248.575, 451.099 267.576 C 454.256 270.005, 458.893 274.341, 461.404 277.212 C 464.918 281.228, 466.242 282.158, 467.152 281.248 C 468.062 280.338, 467.351 277.005, 464.066 266.783 C 458.519 249.522, 455.140 243.296, 447.376 236.033 C 432.127 221.768, 409.327 216.208, 383.729 220.512 M 251 222.593 C 238.104 226.018, 226.468 235.341, 221.511 246.219 C 216.028 258.254, 216.323 273.186, 222.266 284.363 C 235.999 310.188, 269.413 315.855, 290.480 295.930 C 301.194 285.798, 305.575 275.439, 304.795 262.085 C 303.742 244.084, 289.294 227.437, 270.465 222.533 C 263.280 220.662, 258.211 220.677, 251 222.593 M 97.251 255.545 C 88.257 257.967, 74.345 266.203, 70.071 271.637 C 66.644 275.993, 66.556 278.375, 69.587 284.701 C 71.862 289.450, 72.484 292.426, 73.022 301.137 C 73.576 310.125, 74.088 312.475, 76.325 316.291 C 79.121 321.063, 85.351 325, 90.106 325 C 94.543 325, 104.166 322.018, 112.828 317.959 C 121.990 313.666, 124.584 313.622, 119.028 317.855 C 99.841 332.471, 90.156 344.624, 86.495 358.680 C 84.864 364.944, 84.478 376.559, 85.873 377.422 C 86.353 377.718, 87.966 374.617, 89.457 370.529 C 94.330 357.167, 109.307 337.075, 123.260 325.180 C 137.547 313.001, 157.689 302.635, 179 296.495 C 185.875 294.514, 192.625 292.341, 194 291.665 C 197.045 290.170, 197.623 286.320, 195.987 278.438 C 194.168 269.676, 192.482 268.414, 176.481 263.834 C 163.929 260.241, 160.865 259.753, 146.500 259.058 C 135.334 258.518, 128.110 257.637, 122.590 256.142 C 113.571 253.700, 104.866 253.495, 97.251 255.545 M 354.500 263.928 C 337.963 266.605, 333.179 268.933, 330.364 275.671 C 327.148 283.368, 328.593 284.483, 345.746 287.531 C 368.863 291.639, 384.507 296.642, 401.203 305.266 C 422.853 316.450, 440.400 335.126, 445.363 352.270 C 446.054 354.655, 447.201 356.500, 447.993 356.500 C 450.119 356.500, 455.558 348.790, 458.021 342.282 C 464.114 326.190, 461.945 308.508, 451.989 293.104 C 447.536 286.214, 444.346 284.847, 445.330 290.250 C 445.656 292.038, 446.237 294.625, 446.621 296 C 447.135 297.836, 446.254 297.162, 443.304 293.462 C 432.401 279.783, 415.035 269.827, 394.500 265.485 C 385.550 263.592, 362.189 262.682, 354.500 263.928 M 321.388 298.980 C 318.066 300.322, 315 304.932, 315 308.585 C 315 312.230, 315.538 312.759, 332.500 325.802 C 337.450 329.609, 349.150 339.427, 358.500 347.620 C 367.850 355.814, 378.362 364.897, 381.859 367.806 C 392.411 376.583, 415.229 391.266, 420.287 392.536 L 422.500 393.091 422.480 376.796 C 422.461 361.418, 422.315 360.189, 419.891 354.981 C 410.456 334.711, 366.804 305.998, 335.637 299.560 C 327.261 297.830, 324.512 297.718, 321.388 298.980 M 189.934 305.889 C 164.685 313.968, 131.417 342.378, 119.475 366.060 C 112.919 379.060, 111.135 392.130, 114.400 403.254 C 116.516 410.464, 131.844 435.894, 134.573 436.723 C 135.183 436.908, 136.166 434.221, 136.855 430.482 C 141.402 405.808, 156.227 376.618, 176.731 351.967 C 183.960 343.277, 188.103 339.327, 205.372 324.663 C 213.394 317.851, 214.477 315.974, 212.987 311.461 C 210.614 304.270, 201.715 302.119, 189.934 305.889 M 288.898 324.282 C 283.978 327.587, 284.071 330.318, 289.490 341.532 C 292.031 346.791, 298.483 360.868, 303.828 372.815 C 314.519 396.709, 323.141 411.015, 332.268 420 C 350.398 437.848, 372.336 439.722, 394.245 425.295 C 406.820 417.014, 407.050 414.392, 395.660 409.130 C 373.376 398.835, 358.543 385.358, 335.363 354.345 C 314.742 326.756, 299.702 317.025, 288.898 324.282 M 206.899 328.847 C 194.520 338.224, 178.676 357.048, 180.575 360.122 C 181.688 361.922, 184.493 359.181, 192.346 348.621 C 196.903 342.493, 203.664 334.447, 207.371 330.740 C 211.078 327.033, 213.928 324, 213.705 324 C 213.481 324, 210.419 326.181, 206.899 328.847 M 218.500 329.159 C 215.338 330.895, 208.196 338.001, 203.584 344 C 192.113 358.919, 181.036 380.212, 173.930 401 C 170.277 411.689, 169.646 414.732, 169.580 422 C 169.516 428.904, 169.908 431.260, 171.666 434.545 C 175.162 441.076, 182.274 446.790, 193.374 451.987 C 198.971 454.607, 205.021 457.988, 206.817 459.500 C 208.614 461.012, 210.336 461.998, 210.643 461.690 C 210.950 461.383, 210.304 458.515, 209.207 455.316 C 204.878 442.694, 203.571 430.152, 205.003 414.966 C 207.128 392.433, 213.604 369.917, 224.571 346.925 C 229.917 335.719, 230.951 332.776, 230.101 331.188 C 228.353 327.922, 222.589 326.914, 218.500 329.159 M 274 332.529 C 274 333.369, 275.349 336.729, 276.998 339.995 C 278.646 343.261, 282.004 352.008, 284.459 359.432 C 289.806 375.597, 291.887 379.885, 296.108 383.437 C 298.867 385.759, 299.497 385.932, 300.722 384.707 C 301.947 383.482, 301.637 381.937, 298.454 373.394 C 293.629 360.445, 284.260 339.491, 281.175 334.750 C 278.621 330.827, 274 329.396, 274 332.529 M 231.247 361.250 C 227.103 366.444, 223.017 382.032, 223.007 392.691 C 222.993 406.680, 226.848 401.988, 231.652 382.166 C 235.247 367.335, 235.899 360, 233.622 360 C 232.865 360, 231.796 360.563, 231.247 361.250" stroke="orange" fill="black" fill-rule="evenodd"/>
</svg>