<svg xmlns="http://www.w3.org/2000/svg" width="512" height="512" viewBox="0 0 512 512" version="1.1">
	<path d="M 241 35.679 C 198.982 39.986, 157.270 57.532, 125.317 84.342 C 88.634 115.121, 64.029 162.122, 57.459 213.971 C 54.998 233.387, 55.845 260.848, 59.426 277.769 C 62.833 293.866, 67.864 308.835, 74.624 322.988 C 83.936 342.485, 98.946 363.078, 105.964 365.985 C 112.785 368.811, 117.371 363.935, 117.432 353.790 C 117.464 348.482, 117.099 347.566, 112.255 340.790 C 82.447 299.093, 75.806 283.938, 72.846 250.851 C 69.266 210.836, 80.749 166.446, 103.451 132.535 C 131.039 91.329, 173.902 63.451, 225 53.483 C 236.756 51.189, 263.431 50.409, 276.786 51.969 C 327.734 57.917, 377.366 88.860, 405.958 132.500 C 421.365 156.015, 432.322 187.909, 436.566 221.595 C 438.482 236.795, 438.007 248.968, 434.717 269 L 432.500 282.500 431.898 267 C 431.017 244.307, 427.648 235.645, 415.014 223.595 C 407.060 216.008, 399.527 212.540, 391 212.540 C 385.419 212.540, 383.164 213.161, 375.047 216.936 C 364.784 221.710, 357.818 222.996, 353.012 221.005 C 349.512 219.555, 349.323 218.135, 351.595 210.320 C 353.527 203.674, 352.943 199.879, 349.040 193.724 C 345.107 187.523, 338.125 182.598, 328.828 179.470 C 321.344 176.951, 321.141 176.796, 320.519 173.110 C 319.593 167.631, 316.857 163.726, 311.627 160.417 C 309.095 158.815, 306.795 156.909, 306.516 156.180 C 305.759 154.209, 307.674 151.132, 313.480 144.988 C 319.577 138.534, 321.383 133.933, 321.330 124.975 C 321.268 114.267, 316.045 105.137, 307.661 101.078 C 302.334 98.499, 298.451 98.457, 292.002 100.907 L 286.983 102.814 279.725 95.657 C 275.733 91.721, 270 87.194, 266.984 85.597 C 263.968 84, 261.406 82.631, 261.291 82.554 C 261.176 82.478, 261.783 79.734, 262.641 76.457 C 264.337 69.975, 264.047 61.967, 262.028 59.533 C 260.595 57.807, 255.453 57.458, 254.486 59.022 C 254.139 59.585, 253.775 63.378, 253.677 67.451 C 253.464 76.347, 251.876 78.977, 243.895 83.652 C 237.567 87.360, 234.629 90.359, 233.270 94.500 C 232.567 96.641, 231.743 97.410, 230.392 97.187 C 229.352 97.015, 224.900 96.634, 220.500 96.340 C 213.887 95.899, 211.521 96.175, 206.853 97.936 C 199.722 100.626, 193.278 106.263, 189.466 113.145 C 186.761 118.029, 186.500 119.336, 186.503 128 C 186.506 138.647, 187.539 141.442, 194.928 150.790 C 197.168 153.623, 199 156.343, 199 156.835 C 199 157.326, 197.216 158.964, 195.035 160.476 C 190.834 163.387, 187 169.925, 187 174.178 C 187 176.448, 186.432 176.838, 181.750 177.780 C 167.439 180.660, 158.003 186.917, 154.024 196.166 C 150.865 203.510, 151.672 209.182, 157.172 218.285 L 161.406 225.292 162.124 248.896 C 163.493 293.893, 170.422 336.253, 182.420 372.973 C 184.302 378.733, 185.623 383.801, 185.356 384.233 C 184.130 386.217, 151.907 367.350, 141.500 358.554 C 133.429 351.733, 131.455 350.686, 129.067 351.964 C 123.957 354.699, 128.859 360.829, 147.500 375.013 C 198.488 413.810, 249.940 424.013, 304 406.047 C 321.910 400.095, 331.669 395.170, 339.357 388.203 C 350.588 378.025, 357.492 375.694, 380.042 374.467 C 395.038 373.651, 395.598 373.364, 409.759 359.235 C 433.972 335.077, 448.929 302.160, 453.125 263.795 C 454.522 251.019, 453.715 224.194, 451.507 210 C 440.732 140.741, 400.131 84.375, 339.500 54.504 C 310.073 40.006, 271.222 32.581, 241 35.679 M 246.238 93.453 C 242.178 96.869, 241.421 100.975, 243.424 108.707 C 245.502 116.726, 245.525 116.669, 241.582 113.206 C 233.042 105.708, 218.395 103.615, 208.465 108.473 C 194.390 115.359, 192.190 134.372, 204.165 145.638 C 209.103 150.284, 213.223 152, 219.440 152 C 226.243 152, 231.908 149.910, 243.218 143.226 C 259.881 133.379, 274.245 128.604, 290.500 127.510 C 295.450 127.176, 301.048 126.664, 302.940 126.371 C 305.903 125.912, 306.208 126.044, 305.143 127.328 C 304.462 128.148, 298.043 130.684, 290.876 132.964 C 279.047 136.728, 253.247 148.581, 254.392 149.725 C 254.652 149.985, 258.480 148.803, 262.900 147.099 C 267.320 145.394, 272.832 144, 275.152 144 C 280.219 144, 287.510 147.322, 289.667 150.614 C 291.780 153.840, 293.443 153.616, 296.083 149.750 C 297.304 147.963, 301.008 143.714, 304.314 140.309 C 309.927 134.529, 310.356 133.752, 310.783 128.605 C 311.459 120.446, 310.376 116.442, 306.419 112.485 C 303.683 109.749, 302.130 109, 299.199 109 C 294.489 109, 289.088 112.565, 286.490 117.388 C 284.309 121.438, 283 122.019, 283 118.938 C 283 111.713, 272.191 98.676, 262.332 94.011 C 254.727 90.411, 250.046 90.249, 246.238 93.453 M 207.528 163.744 C 206.549 167.647, 205.145 169, 202.078 169 C 194.339 169, 195.821 178.467, 204.342 183.460 C 214.888 189.641, 237.709 192.529, 253.062 189.625 C 257.771 188.735, 264.071 187.097, 267.062 185.986 C 270.053 184.874, 271.375 184.191, 270 184.468 C 263.062 185.862, 245.704 186.149, 237 185.014 C 228.264 183.874, 217.627 180.832, 216.618 179.185 C 216.387 178.808, 231.791 178.453, 250.849 178.395 C 285.953 178.288, 286.259 178.263, 299.884 174.377 C 301.675 173.866, 302.153 174.045, 301.806 175.098 C 301.152 177.082, 287.064 185.624, 277 190.139 C 272.325 192.237, 269.257 193.963, 270.181 193.976 C 272.989 194.016, 302.271 184.178, 305.775 182.018 C 309.353 179.812, 311.407 175.756, 310.591 172.505 C 310.289 171.304, 308.164 169.507, 305.535 168.229 C 303.041 167.018, 300.993 165.683, 300.985 165.263 C 300.976 164.843, 300.584 163.893, 300.114 163.150 C 299.439 162.085, 298.355 162.455, 294.979 164.900 L 290.700 168 259.600 167.988 C 226.958 167.976, 223.754 167.639, 213.618 163.155 C 210.938 161.970, 208.627 161, 208.481 161 C 208.336 161, 207.907 162.235, 207.528 163.744 M 166.217 194.561 C 162.846 196.922, 160.727 201.729, 161.422 205.435 C 163.481 216.409, 191.446 227.690, 225 231.082 C 237.403 232.336, 270.549 231.757, 286.857 230.001 C 315.222 226.948, 336.234 219.224, 342.029 209.720 C 344.951 204.927, 344.546 201.558, 340.527 197.235 L 337.054 193.500 337.027 196.282 C 336.987 200.411, 334.664 205.095, 330.869 208.701 C 320.450 218.600, 286.667 226.209, 252.500 226.352 C 207.209 226.541, 166.245 211.527, 169.373 195.884 C 170.029 192.606, 169.390 192.338, 166.217 194.561 M 382.614 231.719 C 375.860 234.013, 368.087 241.350, 367.342 246.136 C 366.820 249.485, 367.222 250.259, 372.424 255.918 C 378.845 262.901, 380 265.294, 380 271.606 C 380 281.403, 372.529 327.976, 369.869 334.759 C 368.864 337.322, 368.743 337.369, 368.014 335.479 C 366.400 331.297, 365 312.283, 365 294.538 C 365 276.427, 364.963 276.110, 362.520 273.206 C 359.235 269.302, 354.844 267.478, 352.171 268.909 C 349.289 270.451, 348.289 274.667, 347.053 290.500 C 346.452 298.200, 345.731 306.614, 345.452 309.198 C 344.791 315.319, 346.566 326.229, 348.999 330.997 C 354.488 341.758, 366.373 347.400, 378.204 344.863 C 385.961 343.199, 391.173 337.406, 398.781 321.989 C 409.217 300.841, 413.469 284.733, 413.427 266.500 C 413.407 257.436, 413 254.482, 411.117 249.718 C 405.195 234.732, 394.195 227.785, 382.614 231.719 M 177.210 250.091 C 178.781 292.310, 184.291 326.838, 195.912 367.290 C 201.893 388.111, 204.463 395.208, 206.771 397.280 C 209.056 399.330, 218.211 401.577, 230.344 403.064 C 243.775 404.710, 281.764 403.728, 292 401.470 C 304.882 398.628, 305.578 398.140, 307.887 390.328 C 314.275 368.720, 319.261 345.639, 322.646 322 C 324.811 306.888, 325.229 299.621, 325.707 268.750 C 326.172 238.740, 326.040 233.002, 324.881 233.013 C 324.121 233.020, 320.125 234.102, 316 235.418 C 299.024 240.834, 264.078 244.649, 242 243.497 C 221.544 242.430, 196.238 237.824, 183.717 232.889 C 181.082 231.850, 178.380 231, 177.713 230.999 C 176.780 230.999, 176.664 235.404, 177.210 250.091 M 88.610 245.798 C 86.998 250.575, 87.825 271.170, 89.964 279.500 C 95.060 299.354, 112.771 326.101, 129.213 338.775 C 134.939 343.189, 145.866 350, 147.221 350 C 147.682 350, 142.443 344.384, 135.580 337.521 C 109.614 311.556, 94.968 282.083, 89.603 245 C 89.469 244.077, 89.087 244.384, 88.610 245.798 M 244.618 309.112 C 232.258 312.014, 218.576 323.131, 213.370 334.502 C 205.738 351.174, 208.769 369.927, 221.316 383.655 C 232.652 396.059, 245.980 401.100, 261.684 398.923 C 274.016 397.214, 288.978 387.787, 295.868 377.386 C 311.978 353.064, 298.928 318.860, 270.145 309.964 C 263.337 307.860, 251.617 307.469, 244.618 309.112 M 96.228 393.208 C 92.002 395.286, 92.307 398.502, 97.439 406.013 C 107.710 421.046, 126.570 438.567, 144.500 449.736 C 186.559 475.933, 238.706 485.860, 290.495 477.526 C 330.477 471.092, 365.324 453.780, 392.075 427.061 C 413.541 405.620, 418.815 396.572, 411.799 393.226 C 406.971 390.924, 404.447 392.577, 394.440 404.597 C 371.861 431.720, 341.011 450.664, 303.500 460.442 C 252.457 473.747, 196.852 465.388, 152.500 437.740 C 136.663 427.868, 125.115 417.625, 108.500 398.715 C 103.252 392.743, 100.076 391.317, 96.228 393.208" stroke="lightgreen" fill="black" fill-rule="evenodd"/>
</svg>