<svg xmlns="http://www.w3.org/2000/svg" width="512" height="512" viewBox="0 0 512 512" version="1.1">
	<path d="M 146.964 47.414 C 102.861 66.723, 72.229 92.726, 48.615 130.902 C 27.279 165.393, 15.627 201.248, 13.001 240.481 C 8.530 307.299, 33.977 373.188, 82.141 419.500 C 113.232 449.395, 139.527 464.280, 175.531 472.364 C 200.382 477.943, 238.250 483.175, 267.331 485.045 C 284.074 486.122, 285.581 486.067, 295.264 484.026 C 331.957 476.291, 371.685 461.711, 392.166 448.461 C 410.795 436.410, 432.666 416.709, 445.966 400 C 478.771 358.784, 495.925 305.580, 493.682 252 C 491.186 192.378, 470.860 142.340, 431.228 98.250 C 427.149 93.713, 423.247 90, 422.556 90 C 421.866 90, 419.347 91.312, 416.959 92.916 L 412.617 95.832 408.558 93.086 C 406.326 91.576, 403.825 89.968, 403 89.513 C 402.175 89.058, 407.826 95.169, 415.558 103.093 C 436.481 124.535, 445.045 136.517, 456.590 160.500 C 479.256 207.588, 485.254 260.797, 473.499 310.500 C 464.965 346.583, 446.391 380.630, 421.200 406.367 C 410.265 417.540, 396.147 429.270, 394.429 428.611 C 392.345 427.811, 392.459 409.662, 394.588 403.393 C 396.046 399.099, 396.042 398.419, 394.541 395.091 C 393.304 392.347, 392.973 389.039, 393.180 381.483 C 393.331 375.992, 393.328 335.501, 393.175 291.501 L 392.896 211.502 395.059 209.751 C 396.742 208.388, 399.137 207.997, 405.861 207.985 C 417.462 207.964, 417.896 207.616, 415.179 200.516 C 408.983 184.324, 391.466 168.138, 367 155.998 C 354.833 149.960, 354.989 150.161, 355.060 140.595 C 355.188 123.136, 357.906 117.861, 367.936 115.602 C 370.776 114.962, 373.151 114.003, 373.215 113.470 C 373.353 112.309, 368.395 109.719, 353 102.908 C 341.754 97.933, 341.345 97.834, 334.500 98.465 C 330.650 98.820, 297.575 102.446, 261 106.523 C 154.156 118.431, 140.693 119.918, 137.008 120.217 C 132.443 120.587, 132.105 122.915, 136.242 125.502 C 141.550 128.822, 142.066 130.867, 141.765 147.375 L 141.493 162.250 134.997 164.446 C 120.911 169.205, 109.657 179.556, 102.620 194.222 C 97.603 204.679, 94.139 217.850, 96.089 219.055 C 96.741 219.458, 101.600 220.315, 106.887 220.960 C 122.666 222.884, 124.223 223.223, 126.152 225.152 C 127.876 226.876, 128 229.262, 128 260.843 C 128 279.457, 127.707 300.132, 127.349 306.787 L 126.699 318.889 118.876 319.571 C 110.435 320.308, 108.704 321.709, 110.980 325.962 C 112.053 327.967, 112.810 328, 158.035 328 C 192.499 328, 204 327.707, 204 326.828 C 204 326.184, 202.875 322.845, 201.500 319.409 C 197.847 310.277, 198.129 310, 211.107 310 C 217.904 310, 222 310.387, 222 311.029 C 222 311.594, 220.709 314.632, 219.130 317.779 C 213.798 328.410, 213.645 328, 222.933 328 C 230.333 328, 231 328.165, 231 330 C 231 331.975, 230.333 332, 177.167 332 C 147.558 332, 123.049 332.284, 122.702 332.631 C 121.576 333.758, 123.862 336.721, 127.524 338.882 C 131.030 340.950, 131.094 341.103, 130.800 346.642 C 130.483 352.617, 130.527 352.561, 123.632 355.622 C 113.396 360.167, 113.520 372.705, 123.897 382.290 C 127.756 385.855, 128 386.412, 128 391.646 C 128 396.123, 127.511 397.792, 125.500 400.182 C 122.575 403.659, 122.477 404.652, 124.549 409.831 C 125.566 412.373, 125.995 416.069, 125.799 420.592 C 125.518 427.076, 125.330 427.562, 122.613 428.861 C 118.696 430.733, 115.797 429.265, 103.967 419.419 C 80.730 400.079, 64.234 379.808, 51.547 355.005 C 21.306 295.884, 18.842 230.636, 44.575 170.381 C 58.684 137.343, 79.165 109.195, 103.304 89.666 C 119.359 76.678, 124.392 73.847, 164.159 55.435 C 175.599 50.139, 176.985 48.737, 167.585 51.971 C 164.384 53.072, 161.362 53.724, 160.868 53.419 C 160.375 53.114, 159.084 51.125, 158 49 C 156.916 46.875, 155.668 44.913, 155.228 44.641 C 154.788 44.369, 151.069 45.617, 146.964 47.414 M 318.500 113.525 C 317.950 113.727, 300.400 115.514, 279.500 117.495 C 258.600 119.477, 225.975 122.624, 207 124.489 C 188.025 126.353, 168.675 128.180, 164 128.548 C 151.650 129.521, 151 130.121, 151 140.554 C 151 147.520, 151.298 149.177, 152.641 149.693 C 153.544 150.039, 178.181 148.190, 207.391 145.585 C 252.588 141.553, 293.086 138.022, 323.753 135.440 C 329.612 134.946, 331.294 134.418, 332.503 132.692 C 335.245 128.777, 334.008 115.897, 330.687 113.786 C 329.498 113.029, 320.381 112.834, 318.500 113.525 M 311.500 142.127 C 307.100 142.601, 269.112 145.936, 227.082 149.539 C 185.053 153.142, 150.290 156.321, 149.832 156.604 C 149.375 156.887, 149 158.216, 149 159.559 C 149 161.870, 149.313 162, 154.873 162 C 161.322 162, 248.417 155.883, 275.500 153.528 C 304.922 150.969, 332.039 147.692, 333.672 146.498 C 334.722 145.730, 335.016 144.625, 334.555 143.174 C 333.926 141.190, 333.237 141.012, 326.683 141.133 C 322.732 141.206, 315.900 141.654, 311.500 142.127 M 247.500 167.527 C 204.037 171.063, 154.625 174.846, 142.500 175.566 C 133.670 176.091, 130.711 176.670, 127.500 178.506 C 119.846 182.882, 106 199.486, 106 204.289 C 106 206.062, 106.607 206.144, 115.250 205.544 C 159.771 202.448, 203.344 199.845, 233.500 198.480 C 253.300 197.583, 270.444 196.667, 271.598 196.444 C 273.161 196.142, 274.369 194.215, 276.337 188.884 C 278.792 182.236, 283.860 172.532, 287.635 167.250 L 289.244 165 282.372 165.125 C 278.592 165.193, 262.900 166.274, 247.500 167.527 M 328 165.903 C 328 166.399, 331.262 167.784, 335.250 168.979 C 351.512 173.856, 376.254 186.223, 390.162 196.427 C 394.198 199.388, 397.725 201.588, 398 201.315 C 398.904 200.419, 385.631 188.573, 378.149 183.599 C 368.362 177.092, 353.814 170.817, 341.102 167.617 C 329.790 164.770, 328 164.536, 328 165.903 M 250.500 202.665 C 223.354 203.960, 197.484 205.347, 169 207.034 C 150.575 208.125, 128.582 209.422, 120.128 209.917 C 107.999 210.627, 104.412 211.165, 103.128 212.469 C 101.623 213.997, 101.651 214.239, 103.500 215.667 C 105.880 217.505, 111.911 217.350, 187 213.523 C 273.194 209.128, 273 209.146, 273 205.665 C 273 202.059, 270.414 201.714, 250.500 202.665 M 278.223 226.557 L 276 228.113 276 278.485 C 276 335.170, 275.555 332, 283.512 332 C 285.916 332, 288.166 331.540, 288.514 330.978 C 288.861 330.416, 289.097 308.363, 289.038 281.972 L 288.931 233.988 291.353 232.885 C 294.211 231.583, 306.711 232.990, 317 235.772 L 323.500 237.530 323.761 281.291 L 324.021 325.052 326.461 326.164 C 329.350 327.480, 331 331.647, 331 337.626 C 331 341.139, 330.529 342.262, 328.500 343.592 L 326 345.230 326 388.493 C 326 424.208, 325.758 431.956, 324.610 432.909 C 323.845 433.543, 314.958 435.894, 304.860 438.132 C 282.819 443.018, 281.198 443.005, 237.500 437.606 C 211.801 434.431, 208.304 433.786, 206.782 431.940 C 205.837 430.794, 203.009 423.569, 200.497 415.884 C 195.359 400.162, 195.340 400.973, 201.173 387.013 C 204.288 379.557, 204.723 379.010, 208 378.442 C 215.943 377.065, 227.099 372.778, 228.566 370.540 C 230.814 367.109, 229.008 363.269, 224.795 362.526 C 222.983 362.207, 199.688 361.845, 173.030 361.723 L 124.560 361.500 123.563 364.318 C 121.313 370.678, 128.385 375.924, 142.371 378.271 L 150.241 379.592 152.962 387.046 C 154.458 391.146, 156.456 395.993, 157.402 397.818 C 159.102 401.097, 159.081 401.229, 155.624 409.318 C 153.700 413.818, 151.193 420.013, 150.053 423.085 C 148.913 426.157, 146.859 429.723, 145.490 431.010 C 141.594 434.669, 142.257 436, 147.977 436 C 153.994 436, 153.953 436.052, 161.022 419.500 C 163.840 412.900, 166.676 406.983, 167.323 406.351 C 167.970 405.720, 172.634 405.020, 177.687 404.796 L 186.874 404.390 189.072 410.445 C 193.718 423.244, 201.772 438.944, 204.175 439.885 C 205.454 440.386, 211.675 441.277, 218 441.866 C 224.325 442.454, 240.075 444.335, 253 446.046 C 269.290 448.202, 278.801 449.003, 284 448.659 C 292.484 448.096, 328.853 439.576, 330.714 437.714 C 332.098 436.330, 332.371 372.239, 331.325 294.431 C 330.697 247.777, 331.020 240.313, 333.707 239.282 C 334.569 238.952, 343.875 239.443, 354.387 240.373 C 364.899 241.304, 375.525 242.164, 378 242.283 C 382.455 242.498, 382.511 242.545, 383.588 247 L 384.676 251.500 385.395 247.688 C 386.212 243.355, 384.648 237.463, 382.459 236.623 C 381.136 236.115, 371.571 234.813, 315.375 227.492 C 292.918 224.566, 281.476 224.278, 278.223 226.557 M 255.250 226.662 C 253.442 227.392, 253.716 231.037, 255.759 233.436 C 257.399 235.361, 257.483 238.664, 257.004 282.500 C 256.721 308.350, 256.673 330.113, 256.896 330.863 C 257.190 331.852, 258.523 332.088, 261.753 331.724 C 269.961 330.799, 269.460 334.094, 269.819 278.730 L 270.138 229.530 267.958 227.765 C 265.870 226.074, 258.329 225.420, 255.250 226.662 M 338.667 245.667 C 338.300 246.033, 338 263.894, 338 285.356 C 338 311.872, 337.614 326.247, 336.797 330.205 C 335.834 334.868, 335.856 336.976, 336.907 340.765 C 337.857 344.188, 338.368 357.624, 338.751 389.250 C 339.164 423.366, 339.557 433, 340.534 433 C 341.578 433, 356.696 427.378, 364.697 424.015 C 370.019 421.778, 370.097 421.141, 369.787 382.530 L 369.500 346.821 367.010 344.806 C 364.821 343.034, 363.370 342.833, 355.030 343.145 C 346.890 343.449, 345.494 343.269, 345.221 341.876 C 344.813 339.797, 346.014 339.374, 357.597 337.510 C 369.433 335.605, 372.527 334.116, 373.366 329.918 C 373.715 328.176, 374 310.706, 374 291.098 C 374 251.769, 374.054 252.124, 367.747 250.122 C 363.859 248.888, 343.644 245, 341.116 245 C 340.135 245, 339.033 245.300, 338.667 245.667 M 144.250 246.985 C 142.207 247.848, 141.989 248.652, 141.882 255.718 C 141.738 265.169, 141.881 266.296, 143.350 267.235 C 145.021 268.302, 150.445 268.162, 153.581 266.969 L 156.293 265.938 155.684 257.306 C 155.349 252.559, 154.681 248.281, 154.201 247.801 C 152.834 246.434, 146.737 245.934, 144.250 246.985 M 163.250 247.662 C 162.374 248.016, 162 250.986, 162 257.583 L 162 267 170 267 L 178 267 178 258.571 C 178 248.216, 177.095 246.966, 169.679 247.079 C 166.830 247.122, 163.938 247.385, 163.250 247.662 M 183.667 247.667 C 183.300 248.033, 183 252.525, 183 257.648 C 183 268.468, 182.951 268.423, 194.152 267.834 L 200.500 267.500 200.500 274.500 L 200.500 281.500 192 282 L 183.500 282.500 183.500 293 L 183.500 303.500 197 303.500 L 210.500 303.500 210.768 279.584 C 211.027 256.597, 210.957 255.583, 208.971 253.469 L 206.905 251.270 211.953 250.601 C 217.671 249.842, 218.505 248.551, 213.875 247.625 C 209.691 246.788, 184.510 246.823, 183.667 247.667 M 345.659 252.750 C 344.776 254.195, 344.509 328.513, 345.382 329.868 C 346.527 331.644, 362.110 330.983, 364.427 329.061 C 365.802 327.919, 366 323.397, 366 293.069 C 366 266.826, 365.696 257.999, 364.750 256.807 C 364.063 255.941, 360.182 254.505, 356.127 253.616 C 347.845 251.801, 346.317 251.674, 345.659 252.750 M 184.412 271.741 C 183.814 272.159, 183.072 273.501, 182.763 274.724 C 182.289 276.599, 182.698 277.040, 185.373 277.542 C 187.118 277.869, 190.560 277.994, 193.023 277.819 C 197.260 277.517, 197.500 277.339, 197.500 274.500 C 197.500 271.529, 197.443 271.498, 191.500 271.241 C 188.200 271.099, 185.011 271.324, 184.412 271.741 M 141.667 272.667 C 141.300 273.033, 141 274.150, 141 275.148 C 141 277.423, 143.975 278.211, 151.053 277.809 C 156.163 277.519, 156.520 277.330, 156.816 274.750 L 157.133 272 149.733 272 C 145.663 272, 142.033 272.300, 141.667 272.667 M 160.665 274.174 C 159.798 277.490, 160.633 278, 166.934 278 C 176.192 278, 179 277.157, 179 274.375 C 179 272.053, 178.801 272, 170.117 272 C 161.838 272, 161.195 272.148, 160.665 274.174 M 142.035 283.934 C 140.862 286.127, 140.697 292.508, 141.636 299.360 L 142.272 304 148.161 304 C 153.562 304, 154.130 303.788, 155.025 301.435 C 156.098 298.613, 156.356 286.091, 155.393 283.582 C 154.935 282.389, 153.347 282, 148.928 282 C 144.160 282, 142.878 282.360, 142.035 283.934 M 160.216 292.750 L 160.500 303.500 169 303.500 L 177.500 303.500 177.784 292.750 L 178.068 282 169 282 L 159.932 282 160.216 292.750 M 151.750 311.672 C 150.787 311.933, 150 313.014, 150 314.073 C 150 315.860, 150.807 316, 161.070 316 C 171.977 316, 172.134 315.967, 171.820 313.750 C 171.517 311.620, 171.019 311.492, 162.500 311.349 C 157.550 311.265, 152.713 311.411, 151.750 311.672 M 337.184 335.741 C 337.549 338.909, 339.693 339.676, 342.482 337.637 C 344.134 336.429, 344.225 335.976, 343.090 334.608 C 342.356 333.724, 340.655 333, 339.311 333 C 337.237 333, 336.915 333.414, 337.184 335.741 M 346.140 347.824 C 345.041 348.576, 344.754 355.732, 344.640 385.289 C 344.563 405.384, 344.825 422.152, 345.223 422.552 C 345.989 423.322, 360.630 418.493, 362.750 416.771 C 363.704 415.996, 364 407.978, 364 382.913 C 364 350.209, 363.991 350.065, 361.824 348.906 C 358.994 347.391, 347.894 346.626, 346.140 347.824 M 130.558 368.290 C 132.010 372.075, 154.461 374.431, 181.948 373.681 C 203.024 373.107, 215.791 371.502, 215.209 369.500 C 215.049 368.950, 213.924 368.586, 212.709 368.692 C 211.494 368.798, 200.825 369.191, 189 369.565 C 169.233 370.192, 158.768 369.757, 136.226 367.373 C 130.756 366.795, 130.029 366.913, 130.558 368.290 M 161 380.344 C 161 380.808, 162.390 385.661, 164.089 391.129 L 167.177 401.070 176.838 400.785 L 186.499 400.500 188.589 394 C 189.739 390.425, 191.427 386.060, 192.340 384.300 C 193.253 382.539, 194 380.739, 194 380.300 C 194 379.860, 186.575 379.500, 177.500 379.500 C 168.425 379.500, 161 379.880, 161 380.344 M 169.411 432.372 C 168.194 435.542, 169.722 436.686, 176.057 437.348 C 184.427 438.223, 193.004 438.173, 192.985 437.250 C 192.918 434.003, 188.765 432.379, 178.168 431.454 C 171.159 430.843, 169.949 430.970, 169.411 432.372" stroke="white" fill="black" fill-rule="evenodd"/>
</svg>