<svg xmlns="http://www.w3.org/2000/svg" width="512" height="512" viewBox="0 0 512 512" version="1.1">
	<path d="M 384.086 32.540 C 381.109 33.926, 371.621 36.833, 363.002 39 C 354.383 41.166, 343.468 44.303, 338.746 45.970 C 334.024 47.636, 329.383 49, 328.433 49 C 327.484 49, 322.385 47.614, 317.103 45.919 C 269.293 30.580, 202.169 33.808, 161.500 53.400 C 144.610 61.537, 135.772 68.979, 129.888 80.020 C 127.722 84.083, 127.500 85.713, 127.500 97.527 L 127.500 110.555 124.264 114.489 C 119.185 120.662, 117.627 124.772, 117.606 132.046 C 117.586 139.559, 118.856 143.287, 124.064 151 L 127.778 156.500 128.786 180.949 L 129.793 205.398 134.450 214.320 C 138.860 222.771, 139.158 223.855, 140.104 234.871 C 142.519 263.021, 150.380 345.759, 151.576 355.616 L 152.197 360.732 146.307 365.264 C 138.261 371.455, 133.264 377.207, 130.135 383.880 C 126.764 391.070, 126.416 403.691, 129.378 411.368 C 131.354 416.493, 137.891 425.164, 143.719 430.393 C 164.427 448.973, 203.808 461.351, 246.500 462.701 C 275.139 463.606, 298.615 460.376, 324.011 452.037 C 351.640 442.964, 369.748 430.064, 377.403 414 C 380.158 408.217, 380.499 406.507, 380.491 398.500 C 380.480 386.119, 377.757 380.576, 365.839 368.672 C 360.977 363.817, 357 359.282, 357 358.595 C 357 357.098, 359.907 317.978, 363.993 264.500 L 366.972 225.500 372.143 215.348 L 377.314 205.197 378.079 181.612 L 378.843 158.028 382.301 153.764 C 387.279 147.625, 390.092 141.510, 390.715 135.471 C 391.520 127.671, 390.414 123.731, 385.337 116.316 C 380.817 109.713, 380.776 109.579, 381.592 104.070 C 383.246 92.900, 382.780 88.881, 379.128 82.857 C 377.273 79.798, 374.185 75.629, 372.265 73.594 C 370.344 71.559, 368.937 69.754, 369.137 69.583 C 369.337 69.413, 376.025 67.115, 384 64.476 C 403.159 58.138, 405.818 55.677, 405.039 45 C 404.726 40.700, 400.862 33.887, 397.613 31.906 C 393.476 29.383, 390.575 29.519, 384.086 32.540 M 382.166 43.301 C 380.936 44.782, 374.560 46.667, 341 55.466 C 319.383 61.134, 293.178 69.403, 290.500 71.400 C 288.538 72.864, 288.562 72.954, 291.775 76.196 C 294.937 79.387, 295.313 79.497, 302.775 79.416 C 308.096 79.359, 314.079 78.359, 322 76.204 C 332.618 73.315, 374.228 59.837, 381.771 56.844 C 384.483 55.768, 385.416 55.779, 387.225 56.909 L 389.408 58.272 387.492 55.386 C 386.438 53.799, 385.087 50.094, 384.489 47.154 C 383.584 42.699, 383.197 42.057, 382.166 43.301 M 231.500 46.984 C 195.363 49.167, 165.960 58.687, 150.401 73.242 C 143.280 79.903, 140.375 85.763, 141.317 91.567 C 144.070 108.533, 171.054 124.313, 208.906 131.092 C 223.905 133.778, 260.935 134.818, 279.620 133.079 C 323.029 129.038, 358.801 114.436, 367.053 97.390 C 369.010 93.347, 369.127 92.368, 368.072 88.847 C 366.322 83.006, 355 71.791, 355 75.898 C 355 76.392, 356.120 78.754, 357.488 81.148 C 369.310 101.828, 337.984 121.653, 282.661 128.502 C 260.290 131.271, 224.744 130.101, 203.722 125.903 C 191.727 123.508, 176.602 118.199, 169.226 113.794 C 158.446 107.357, 150.085 97.026, 150.022 90.066 C 149.904 76.980, 174.663 62.948, 209.080 56.594 C 236.020 51.621, 259.791 51.172, 289.143 55.081 C 300.380 56.578, 304.451 56.777, 306.643 55.936 L 309.500 54.840 307 53.529 C 297.807 48.708, 258.861 45.332, 231.500 46.984 M 233.500 70.557 C 232.400 70.812, 229.025 71.507, 226 72.102 C 213.670 74.528, 200.160 83.530, 198.415 90.481 C 195.658 101.469, 208.965 113.134, 231.158 119.185 C 238.242 121.116, 241.988 121.462, 256 121.478 C 270.404 121.494, 273.516 121.199, 280.500 119.151 C 289.856 116.408, 299.934 111.836, 302.236 109.290 C 303.776 107.587, 303.506 107.493, 296.677 107.349 C 292.730 107.266, 281.625 106.481, 272 105.605 C 262.375 104.729, 251.238 104.009, 247.250 104.006 C 243.262 104.003, 240 103.582, 240 103.072 C 240 100.701, 264.707 99.886, 291.109 101.388 C 306.650 102.271, 306.744 102.264, 312.355 99.695 C 317.510 97.335, 321.377 93.044, 319.784 91.451 C 319.487 91.153, 317.142 91.439, 314.573 92.086 C 300.333 95.672, 281.024 88.035, 281.004 78.809 C 280.999 76.549, 280.779 76.448, 269.393 73.478 C 259.890 71, 238.956 69.297, 233.500 70.557 M 232.500 80.818 C 224.156 82.939, 215.753 87.316, 212.417 91.281 C 209.611 94.616, 209.233 99.672, 211.574 102.559 C 212.440 103.626, 212.907 104.008, 212.612 103.406 C 212.316 102.805, 212.527 100.676, 213.079 98.676 C 215.733 89.064, 237.461 82.081, 261.161 83.222 C 266.509 83.479, 271.457 83.336, 272.158 82.902 C 277.571 79.557, 244.338 77.810, 232.500 80.818 M 246.500 91.002 C 239.405 92.069, 233.757 93.724, 231.469 95.408 C 230.020 96.474, 231.350 96.331, 236.500 94.864 C 242.439 93.174, 245.622 92.939, 257.500 93.314 C 271.010 93.742, 272.613 94.008, 295.500 99.614 C 300.574 100.856, 293.302 96.932, 286.105 94.544 C 274.766 90.780, 257.963 89.278, 246.500 91.002 M 137.032 106.685 C 136.903 111.515, 145.006 120.930, 154.394 126.859 C 174.742 139.710, 200.481 147.524, 230.493 149.961 C 269.731 153.147, 304.070 148.562, 336 135.873 C 350.900 129.952, 366.562 118.564, 368.856 111.984 C 370.070 108.501, 369.091 108.136, 366.428 111.079 C 363.083 114.775, 350.500 122.605, 342.658 125.870 C 304.747 141.652, 244.920 146.052, 198.982 136.435 C 171.550 130.693, 150.412 120.644, 139.338 108.081 C 138.087 106.661, 137.049 106.033, 137.032 106.685 M 132.742 125.001 C 130.382 133.011, 130.525 134.859, 133.918 140.210 C 143.518 155.347, 180.880 171.587, 220.036 177.641 C 235.696 180.062, 271.751 180.088, 288.036 177.689 C 326.449 172.031, 359.973 158.096, 372.110 142.742 C 377.290 136.188, 377.683 134.111, 374.995 127.488 C 373.770 124.470, 372.594 122, 372.381 122 C 372.169 122, 370.374 123.794, 368.393 125.987 C 354.883 140.941, 317.286 155.337, 280.608 159.599 C 263.691 161.565, 232.878 161.033, 218 158.518 C 182.600 152.535, 152.147 139.279, 138.831 124.057 L 134.485 119.089 132.742 125.001 M 139.499 175.136 C 141.325 203.154, 141.528 204.529, 144.593 209.570 C 150.638 219.513, 151 220.441, 151.004 225.984 C 151.008 231.736, 155.277 279.224, 159.501 320.500 C 160.852 333.700, 163.109 358, 164.517 374.500 C 167.427 408.611, 168.493 416.556, 170.591 419.770 C 174.154 425.231, 189.403 433.513, 204.914 438.413 C 219.974 443.170, 229.772 444.396, 253 444.426 C 277.516 444.458, 287.258 443.132, 305.500 437.281 C 325.991 430.709, 338.977 422.598, 340.940 415.142 C 341.468 413.139, 342.824 398.225, 343.955 382 C 347.856 326.007, 351.035 283.402, 353.514 253.906 C 354.881 237.630, 356 223.184, 356 221.804 C 356 220.425, 357.112 217.767, 358.472 215.898 C 366.871 204.350, 366.110 207.010, 366.939 186.311 C 367.353 175.965, 367.551 167.327, 367.378 167.116 C 367.206 166.904, 363.905 168.641, 360.043 170.974 C 333.631 186.932, 297.479 195.176, 254 195.155 C 225.095 195.141, 201.226 191.597, 177.817 183.844 C 166.984 180.255, 151.816 173.365, 145.738 169.271 C 143.407 167.701, 140.898 166.047, 140.162 165.595 C 139.061 164.919, 138.944 166.614, 139.499 175.136 M 169.250 241.662 C 168.421 241.997, 168.010 244.412, 168.030 248.833 C 168.078 259.602, 171.654 295.485, 172.914 297.839 C 173.550 299.027, 174.955 300, 176.035 300 C 177.711 300, 178 299.305, 178 295.272 C 178 285.906, 173.856 243.531, 172.817 242.280 C 171.695 240.928, 171.258 240.852, 169.250 241.662 M 333.095 243.182 C 332.156 245.534, 329.978 279.947, 329.992 292.191 C 330.001 299.410, 330.695 300.674, 333.519 298.610 C 335.071 297.475, 335.523 294.546, 336.640 278.392 C 337.358 268.001, 338.071 255.450, 338.223 250.500 C 338.489 241.843, 338.415 241.488, 336.260 241.182 C 334.678 240.957, 333.747 241.545, 333.095 243.182 M 174.941 310.571 C 173.865 311.867, 174.029 316.980, 175.879 339.821 C 179.558 385.241, 180.867 396.273, 182.801 398.145 C 186.947 402.161, 192 400.690, 192 395.468 C 192 394.154, 190.897 382.823, 189.549 370.289 C 187.310 349.470, 184 315.781, 184 313.813 C 184 312.277, 179.998 309, 178.122 309 C 177.090 309, 175.658 309.707, 174.941 310.571 M 323.255 311.250 C 322.710 311.938, 321.995 315.875, 321.666 320 C 317.094 377.297, 315.821 396.152, 316.376 398.361 C 317.799 404.032, 327 400.322, 327 394.077 C 327 392.470, 328.122 373.760, 329.494 352.500 C 331.250 325.273, 331.683 313.276, 330.958 311.922 C 329.779 309.719, 324.811 309.285, 323.255 311.250 M 318 416.521 C 312.846 419.511, 290.743 425.933, 278.348 428.042 C 267.048 429.964, 263.091 430.162, 245.500 429.686 C 226.889 429.183, 219.551 428.267, 204.845 424.612 C 203.555 424.292, 205.821 425.636, 209.880 427.599 C 229.901 437.282, 261.069 439.230, 287.736 432.465 C 298.588 429.712, 316.211 421.571, 319.924 417.596 C 322.604 414.727, 321.834 414.297, 318 416.521" stroke="cyan" fill="black" fill-rule="evenodd"/>
</svg>