<svg xmlns="http://www.w3.org/2000/svg" width="512" height="512" viewBox="0 0 512 512" version="1.1">
	<path d="M 239.729 27.663 C 239.455 28.123, 238.248 32.322, 237.046 36.993 C 232.853 53.287, 227.360 59.489, 214.959 61.928 C 211.621 62.585, 208.672 63.692, 208.404 64.389 C 207.404 66.995, 210.201 71.293, 217.568 78.471 C 223.388 84.142, 225.080 86.404, 224.828 88.176 C 224.470 90.702, 224.918 90.595, 204.707 92.991 C 186.987 95.091, 173.081 100.125, 163.008 108.088 C 156.445 113.276, 154.207 117.044, 153.388 124.291 C 152.852 129.023, 152.250 130.446, 150.217 131.778 C 148.836 132.682, 146.423 135.195, 144.853 137.361 C 140.098 143.926, 140.996 152.665, 147.304 161.197 C 149.086 163.608, 149.183 164.464, 148.216 169.278 C 147.073 174.968, 147.668 179.506, 150.210 184.500 C 152.652 189.297, 152.361 183.802, 158.983 350.500 L 160.930 399.500 157.962 403.500 C 146.207 419.341, 146.796 432.282, 159.843 444.847 C 178.614 462.923, 221.540 474.278, 259.185 471.124 C 310.710 466.807, 346 447.042, 346 422.500 C 346 415.214, 344.044 410.797, 337.977 404.382 L 333 399.120 333 390.010 C 333 383.854, 333.488 379.957, 334.506 377.989 C 336.705 373.736, 343.332 370.351, 352 369.053 C 370.548 366.275, 385.637 360.967, 396.856 353.271 C 414.059 341.470, 427.503 319.620, 431.029 297.729 C 432.692 287.410, 431.770 270.699, 429.003 261 C 422.650 238.732, 404.907 219.299, 384.616 212.385 C 381.018 211.159, 380 210.331, 380 208.629 C 380 207.428, 379.296 205.440, 378.436 204.212 C 376.919 202.046, 376.381 201.983, 360.442 202.109 C 346.414 202.219, 343.626 201.985, 341.375 200.510 C 338.897 198.886, 338.774 198.439, 339.331 193.103 C 339.658 189.979, 340.884 185.255, 342.057 182.604 C 344.118 177.945, 344.136 177.572, 342.587 171.405 L 340.984 165.026 344.443 160.213 C 348.669 154.330, 350.555 147.816, 349.583 142.461 C 349.020 139.362, 347.481 137.167, 342.512 132.377 C 337.089 127.149, 336.062 125.593, 335.482 121.730 C 334.216 113.289, 329.411 108.305, 316 101.523 C 303.875 95.392, 290.921 92.152, 271.736 90.451 C 267.465 90.072, 263.749 89.404, 263.478 88.965 C 262.465 87.325, 265.233 82.516, 270.404 76.930 C 276.137 70.738, 277.976 66.494, 275.808 64.462 C 275.089 63.787, 272.091 62.456, 269.147 61.503 C 258.772 58.146, 248.574 47.240, 243.893 34.500 C 241.508 28.007, 240.504 26.358, 239.729 27.663 M 239.172 57.558 C 235.633 62.579, 228.339 67.658, 223.312 68.601 C 221.478 68.945, 219.767 69.568, 219.509 69.986 C 218.813 71.112, 229.978 75.858, 236.020 77.004 C 239.423 77.649, 243.358 77.664, 247.196 77.046 C 253.470 76.035, 264 71.739, 264 70.189 C 264 69.683, 260.679 68.057, 256.620 66.576 C 248.713 63.692, 245.555 61.137, 244.463 56.741 C 243.425 52.557, 242.608 52.683, 239.172 57.558 M 262 98.500 C 262 101.606, 265.667 103.709, 272.975 104.794 C 281.844 106.110, 285 108.526, 285 114 C 285 122.209, 273.609 127.002, 250.500 128.518 C 240.456 129.177, 223.001 127.885, 215.821 125.952 C 210.006 124.386, 205 119.544, 205 115.485 C 205 110.979, 209.173 107.629, 218.095 104.972 C 224.474 103.072, 227.280 100.947, 225.612 99.278 C 224.331 97.998, 203.383 101.205, 194.570 104.031 C 184.085 107.393, 175.189 112.385, 173.136 116.057 C 171.141 119.624, 173.082 123.352, 179.428 128.144 C 193.805 139.001, 238.286 145.653, 271.637 141.934 C 284.976 140.447, 295.108 137.696, 304.813 132.926 C 316.637 127.115, 319.754 121.426, 314.519 115.205 C 311.667 111.815, 300.469 106.023, 291 103.040 C 286.115 101.501, 264.746 97, 262.325 97 C 262.146 97, 262 97.675, 262 98.500 M 164.737 129.104 C 165.632 132.525, 172.334 138.635, 178.721 141.853 C 186.812 145.930, 199.468 149.752, 212.980 152.199 C 228.432 154.998, 259.675 155.239, 274.500 152.674 C 287.545 150.416, 301.192 146.774, 308.169 143.689 C 314.454 140.909, 321.745 134.800, 323.133 131.150 C 324.527 127.483, 323.448 127.400, 319.497 130.869 C 312.268 137.216, 301.266 141.615, 283.123 145.413 C 237.943 154.870, 187.591 148.491, 168.496 130.889 C 164.915 127.588, 164.260 127.277, 164.737 129.104 M 335.767 141.930 C 336.207 146.504, 336.012 146.988, 332.203 150.797 C 324.470 158.530, 304.599 166.561, 283.262 170.578 C 269.682 173.134, 231.675 173.693, 216.980 171.552 C 190.925 167.757, 168.995 160.094, 159.134 151.339 C 155.456 148.074, 154.729 146.785, 154.271 142.716 C 153.753 138.121, 153.659 137.999, 151.866 139.621 C 150.840 140.550, 150 142.613, 150 144.205 C 150 157.002, 173.829 170.077, 208.417 176.259 C 218.737 178.103, 224.366 178.424, 247 178.459 C 264.761 178.487, 275.973 178.062, 281 177.173 C 320.376 170.205, 345.486 155.243, 340.006 142.014 C 339.302 140.314, 337.955 138.511, 337.014 138.008 C 335.483 137.188, 335.351 137.601, 335.767 141.930 M 156.688 169.646 C 156.309 170.024, 156 172.217, 156 174.519 C 156 180.284, 159.214 184.610, 166.500 188.653 C 198.376 206.342, 255.128 211.183, 298.753 199.935 C 326.760 192.713, 338.723 183.779, 335.096 172.792 L 333.953 169.327 324.226 174.133 C 313.190 179.587, 301.682 183.138, 285 186.236 C 275.147 188.067, 269.705 188.377, 247 188.408 C 223.598 188.439, 218.982 188.172, 207.519 186.127 C 192.557 183.458, 177.811 178.872, 166.442 173.354 C 162.074 171.235, 158.247 169.378, 157.938 169.229 C 157.628 169.080, 157.066 169.268, 156.688 169.646 M 190.162 212.031 C 192.670 213.495, 209.455 217.711, 218.500 219.149 C 230.957 221.130, 265.229 220.862, 278.228 218.682 C 287.318 217.158, 304.608 212.264, 301.500 212.094 C 300.950 212.064, 294.650 213.176, 287.500 214.564 C 277.352 216.534, 270.003 217.215, 254 217.670 C 232.126 218.292, 217.324 217.032, 198.547 212.947 C 188.415 210.744, 187.851 210.682, 190.162 212.031 M 359.500 233.334 C 352.575 235.636, 349.712 237.638, 341.845 245.677 L 334.190 253.500 333.485 287.675 L 332.779 321.850 337.403 326.792 C 345.774 335.742, 358.545 340.712, 370.670 339.738 C 392.668 337.973, 410.910 313.581, 410.983 285.838 C 411.060 256.201, 394.196 233.789, 370.794 232.428 C 366.273 232.165, 361.979 232.510, 359.500 233.334 M 231.923 254.442 C 213.038 259.652, 198.751 274.731, 195.673 292.702 C 194.429 299.960, 195.756 311.850, 198.603 318.965 L 200.333 323.289 204.666 318.703 L 209 314.116 209 303.623 C 209 291.494, 209.693 289.142, 214.940 283.449 C 218.480 279.609, 218.745 278.921, 218.279 274.785 C 217.821 270.718, 217.994 270.235, 220.106 269.682 C 221.390 269.347, 223.451 269.326, 224.687 269.636 C 226.719 270.146, 226.876 270.626, 226.327 274.634 C 225.834 278.224, 226.201 279.964, 228.254 283.784 C 232.313 291.334, 232.598 295.752, 229.503 303.166 C 225.244 313.371, 224.746 315.701, 226.010 319.529 C 226.892 322.202, 228.394 323.633, 232.821 326.019 C 244.226 332.167, 247 335.937, 247 345.292 C 247 351.821, 247.105 352.124, 249.250 351.820 C 251.300 351.528, 251.472 351.042, 251.187 346.334 C 250.742 338.998, 253.490 334.100, 260.860 329.095 C 267.562 324.544, 270.525 319.665, 269.479 314.903 C 269.116 313.251, 267.735 309.231, 266.409 305.970 C 262.905 297.345, 263.111 289.947, 267.063 282.541 C 269.707 277.586, 269.983 276.389, 269.075 273.786 C 267.813 270.164, 268.370 269, 271.368 269 C 275.593 269, 277.376 271.250, 276.666 275.687 C 276.115 279.134, 276.380 280.006, 278.611 282.089 C 280.032 283.415, 282.109 286.283, 283.226 288.462 C 285.026 291.973, 285.180 293.534, 284.584 302.186 L 283.912 311.949 288.135 316.531 C 293.002 321.810, 293.424 321.557, 295.674 312.001 C 301.776 286.085, 286.548 261.379, 260.276 254.571 C 253.079 252.707, 238.454 252.640, 231.923 254.442 M 243.642 263.526 C 242.620 266.011, 240.018 270.172, 237.859 272.772 C 233.679 277.808, 232.390 280.969, 233.421 283.655 C 233.982 285.117, 234.310 285.044, 236.175 283.043 C 238.786 280.239, 239.275 280.965, 240.968 290.167 C 242.486 298.415, 241.818 301.880, 237.256 309.414 C 234.687 313.657, 233.577 316.765, 233.328 320.414 L 232.980 325.500 234.318 320.821 C 235.053 318.247, 236.970 314.453, 238.577 312.391 C 240.185 310.328, 242.698 306.359, 244.162 303.570 L 246.825 298.500 247.912 301.315 C 248.511 302.863, 249 304.467, 249 304.879 C 249 305.291, 251.066 308.708, 253.591 312.474 C 256.117 316.239, 258.563 320.260, 259.028 321.410 C 259.846 323.433, 259.875 323.436, 259.936 321.500 C 259.971 320.400, 258.192 316.575, 255.984 313 C 250.135 303.531, 249.667 300.992, 251.835 290.501 C 253.649 281.726, 253.669 281.689, 255.379 284.088 C 257.062 286.448, 257.130 286.458, 258.549 284.559 C 261.065 281.193, 260.188 278.436, 254.463 271.708 C 252.689 269.623, 250.675 265.910, 249.988 263.458 C 248.340 257.571, 246.081 257.595, 243.642 263.526 M 271.072 291.827 C 269.642 295.279, 271.751 306.788, 275.070 313.645 C 277.321 318.294, 288.167 327.633, 290 326.500 C 292.233 325.120, 290.725 322.222, 285.903 318.622 C 279.759 314.035, 277.175 308.814, 276.327 299.276 C 275.431 289.189, 273.373 286.272, 271.072 291.827 M 220.067 291.874 C 219.480 292.971, 218.996 296.036, 218.990 298.684 C 218.973 307.192, 213.035 317.333, 205.250 322.152 C 201.612 324.403, 201.308 325.568, 203.530 328.739 L 205.060 330.924 210.280 326.966 C 213.151 324.790, 215.786 323.007, 216.135 323.004 C 218.840 322.986, 225.323 301.784, 224.803 294.660 C 224.461 289.988, 221.887 288.473, 220.067 291.874 M 213.283 330.358 C 210.414 332.086, 208.052 333.984, 208.033 334.576 C 207.998 335.707, 212.157 340, 213.289 340 C 213.652 340, 214.657 338.630, 215.522 336.957 C 218.098 331.975, 221.067 331.263, 226.350 334.359 C 231.253 337.232, 234.633 341.866, 235.655 347.115 C 236.403 350.955, 237.482 351.963, 240.870 351.985 C 243.146 351.999, 243.223 351.764, 242.813 346.098 C 242.243 338.216, 239.114 334.144, 230.504 330.076 C 222.519 326.303, 219.948 326.345, 213.283 330.358 M 268.500 330.021 C 258.654 334.735, 256 337.962, 256 345.223 C 256 349.771, 256.132 349.999, 258.750 349.985 C 263.113 349.960, 264.497 348.546, 264.146 344.470 C 263.800 340.454, 265.608 337.771, 270.298 335.346 C 273.697 333.588, 276.290 334.282, 278.948 337.662 L 280.949 340.205 284.092 337.061 C 287.183 333.971, 287.205 333.883, 285.370 331.857 C 283.039 329.281, 278.669 326.977, 276.300 327.074 C 275.310 327.115, 271.800 328.441, 268.500 330.021 M 219.816 335.245 C 218.948 335.935, 217.487 337.691, 216.571 339.148 C 214.940 341.738, 214.968 341.841, 217.879 343.914 C 221.712 346.644, 229.003 349.950, 231.250 349.978 C 232.591 349.995, 233 349.173, 233 346.461 C 233 343.729, 232.145 342.037, 229.250 339.038 C 224.964 334.599, 222.086 333.442, 219.816 335.245 M 269.695 338.111 C 266.008 340.256, 265.306 347, 268.769 347 C 270.767 347, 279 342.195, 279 341.029 C 279 337.805, 273.295 336.016, 269.695 338.111 M 332.775 423.783 C 321.253 443.424, 275.401 457.424, 233.775 454.011 C 204.340 451.597, 179.508 442.500, 166.250 429.273 C 159.656 422.694, 158.469 423.033, 161.871 430.523 C 167.920 443.837, 194.454 456.705, 224.845 461.061 C 237.262 462.842, 267.827 461.733, 280.288 459.050 C 301.212 454.546, 317.369 447.829, 326.402 439.878 C 332.759 434.282, 335.186 429.974, 334.809 424.957 L 334.500 420.843 332.775 423.783" stroke="darkred" fill="black" fill-rule="evenodd"/>
</svg>