<svg xmlns="http://www.w3.org/2000/svg" width="512" height="512" viewBox="0 0 512 512" version="1.1">
	<path d="M 199.720 30.250 C 197.135 32.038, 195.015 33.774, 195.010 34.108 C 195.004 34.442, 197.804 36.446, 201.231 38.562 C 213.965 46.421, 230.832 66.017, 240.378 84.041 C 245.239 93.220, 251.258 107.725, 250.790 109.131 C 250.629 109.612, 247.348 107.641, 243.499 104.750 C 239.650 101.860, 233.343 97.839, 229.484 95.816 C 198.097 79.358, 159.918 89.643, 144.740 118.646 C 140.482 126.782, 140.028 130.410, 143.064 132.034 C 144.863 132.997, 145.671 132.558, 149.340 128.617 C 151.730 126.051, 156.136 122.885, 159.526 121.297 C 164.806 118.825, 166.604 118.508, 175 118.570 C 182.390 118.624, 185.789 119.144, 190.304 120.912 C 198.334 124.055, 209.946 132.037, 215.569 138.276 C 221.738 145.122, 229.288 156.404, 227.989 156.837 C 227.427 157.024, 222.362 155.924, 216.734 154.392 C 190.936 147.369, 163.678 153.279, 140.172 170.992 C 104.160 198.127, 85.893 244.964, 91.352 296.165 C 98.044 358.931, 120.461 407.314, 163.486 451.846 C 172.586 461.266, 193.646 480.100, 197.477 482.246 C 198.340 482.730, 201.702 480.617, 207.024 476.246 C 211.541 472.536, 215.818 469.078, 216.528 468.563 C 217.407 467.924, 220.760 468.992, 227.052 471.916 C 251.462 483.257, 257.770 483.315, 279.122 472.393 L 290.017 466.820 293.401 469.660 C 295.263 471.222, 299.560 474.865, 302.950 477.755 C 310.216 483.947, 308.851 484.283, 323.147 472.784 C 335.962 462.476, 355.281 443.261, 365.158 431 C 397.624 390.695, 414.837 343.596, 416.689 290 C 418.057 250.399, 406.956 214.254, 385.448 188.277 C 371.593 171.544, 354.537 159.676, 335.965 153.844 C 329.509 151.817, 326.451 151.500, 313.349 151.500 C 295.861 151.500, 296.473 152.412, 306.271 140.945 C 313.385 132.619, 322.931 124.576, 330.429 120.589 C 339.588 115.719, 349.276 117.986, 359.761 127.455 C 364.995 132.180, 367.393 132.744, 368.624 129.538 C 369.414 127.478, 364.177 116.672, 359.207 110.110 C 347.952 95.249, 332.497 88.214, 313.500 89.303 C 297.105 90.243, 285.316 96.442, 271.169 111.562 C 266.245 116.825, 262.886 119.712, 262.657 118.878 C 262.450 118.120, 261.511 113.450, 260.572 108.500 C 256.225 85.589, 246.622 66.196, 230.402 47.577 C 222.695 38.729, 208.890 27, 206.183 27 C 205.213 27, 202.305 28.462, 199.720 30.250 M 188.473 99.008 C 182.034 99.886, 169.791 104.342, 168.049 106.441 C 167.219 107.441, 168.365 107.747, 173.467 107.888 C 182.599 108.139, 193.709 111.231, 203.287 116.186 C 211.835 120.609, 221.635 129.647, 243 152.810 C 254.510 165.288, 255.226 165.207, 256.739 151.250 C 257.876 140.761, 257.846 140.379, 255.500 135.500 C 254.177 132.750, 250.678 127.575, 247.725 124 C 232.577 105.665, 209.875 96.090, 188.473 99.008 M 308.083 101.588 C 292.513 105.774, 278.495 119.911, 273.015 136.954 C 271.758 140.863, 270.941 144.275, 271.201 144.534 C 271.460 144.794, 274.620 141.292, 278.222 136.753 C 287.629 124.900, 295.872 117.412, 303.212 114.053 C 312.933 109.605, 315.166 109.427, 308.101 113.663 C 298.827 119.225, 292.734 125.083, 286.600 134.339 C 280.251 143.918, 274.307 155.641, 275.297 156.630 C 276.679 158.012, 280.959 154.990, 284.971 149.800 C 287.225 146.885, 291.729 141.083, 294.981 136.907 C 304.453 124.743, 318.464 114.352, 332.750 108.897 C 336.188 107.584, 339 106.239, 339 105.907 C 339 104.976, 332.012 102.142, 327 101.039 C 320.816 99.679, 314.504 99.862, 308.083 101.588 M 209.824 109.793 C 219.720 114.802, 231.124 124.314, 242.739 137.250 C 248.048 143.162, 252.784 148, 253.263 148 C 256.555 148, 245.997 131.961, 236.477 122.500 C 229.042 115.111, 221.058 110.236, 212.068 107.595 C 202.943 104.915, 202.003 105.835, 209.824 109.793 M 186.388 163.051 C 169.171 165.298, 154.592 173.263, 140.496 188.127 C 125.662 203.768, 114.950 225.163, 109.874 249.288 C 104.441 275.104, 108.951 319.104, 120.504 353 C 132.343 387.736, 149.379 414.283, 178.990 444.137 C 187.521 452.738, 195.625 460.328, 197 461.005 C 198.375 461.682, 193.035 455.783, 185.133 447.896 C 154.524 417.349, 140.964 395.770, 128.014 357 C 113.794 314.433, 110.831 271.635, 120.155 243.500 C 128.887 217.150, 153.405 185.295, 174.754 172.562 C 182.464 167.964, 193.043 164, 197.605 164 C 198.922 164, 200 163.550, 200 163 C 200 161.867, 195.333 161.884, 186.388 163.051 M 312.406 163.561 C 321.379 165.592, 327.667 168.832, 337.513 176.499 C 349.717 186.002, 363.073 201.171, 372.734 216.500 C 378.481 225.618, 386.034 242.689, 388.735 252.663 C 391.241 261.921, 391.400 263.825, 391.437 285 C 391.481 310.842, 390.276 320.634, 384.014 345.321 C 378.208 368.212, 370.357 387.398, 359.891 404.272 C 351.282 418.153, 343.899 427.139, 326.523 444.886 C 308.630 463.161, 307.336 465.764, 323.137 451.695 C 335.342 440.829, 344.085 431.262, 355.023 416.803 C 382.591 380.363, 395.445 344.840, 399.042 295.158 C 402.313 249.973, 388.310 208.028, 361.738 183.415 C 347.008 169.771, 332.355 163.189, 315 162.420 L 305.500 161.999 312.406 163.561 M 206.491 169.429 C 189.081 174.318, 176.401 181.562, 164.410 193.468 C 148.575 209.190, 138.541 228.644, 132.824 254.709 C 129.978 267.686, 129.782 293.153, 132.398 310 C 138.144 346.989, 152.163 382.193, 171.425 408 C 191.788 435.283, 213.171 453.257, 236.484 462.685 C 251.999 468.960, 259.595 468.289, 278.500 458.972 C 293.510 451.575, 304.405 443.388, 318.578 428.858 C 346.695 400.030, 363.840 367.359, 371.396 328.213 C 376.111 303.788, 377.175 281.875, 374.468 265 C 369.749 235.594, 359.246 211.892, 343.562 195.254 C 330.924 181.847, 317.936 173.692, 303.234 169.932 C 287.170 165.824, 273.995 168.163, 265.533 176.625 C 259.228 182.930, 258 187.727, 258 206.059 C 258 218.006, 257.715 220.992, 256.476 222.020 C 255.638 222.716, 254.771 223.105, 254.551 222.884 C 254.331 222.664, 253.680 214.969, 253.106 205.784 C 252.433 195.006, 251.503 187.741, 250.484 185.293 C 248.267 179.966, 241.609 173.517, 235.599 170.874 C 229.167 168.046, 214.082 167.297, 206.491 169.429" stroke="orange" fill="black" fill-rule="evenodd"/>
</svg>