<svg xmlns="http://www.w3.org/2000/svg" width="512" height="512" viewBox="0 0 512 512" version="1.1">
	<path d="M 343.829 85.960 C 341.260 86.428, 335.185 87.946, 330.329 89.334 C 310.908 94.881, 307.332 94.932, 288.500 89.927 C 269.775 84.950, 255.634 86.164, 239 94.178 C 232.096 97.504, 228.891 99.890, 221.926 106.886 C 211.876 116.982, 208.090 123.209, 204.530 135.492 C 203.099 140.431, 201.558 144.842, 201.105 145.295 C 200.652 145.748, 192.680 147.455, 183.391 149.088 C 155.882 153.923, 142.475 158.272, 128.439 166.909 C 106.448 180.443, 91.261 202.196, 86.585 226.860 C 84.168 239.607, 84.435 242.691, 88.500 249 C 94.463 258.256, 92.996 268.189, 84.859 273.643 C 77.792 278.381, 78.577 284, 86.307 284 C 92.463 284, 97.712 280.857, 106.306 272.023 C 110.599 267.611, 114.470 264, 114.908 264 C 115.346 264, 116.207 267.031, 116.820 270.735 C 117.931 277.439, 117.923 277.484, 115.068 280.485 C 110.401 285.390, 107 291.088, 107 294.005 C 107 297.640, 110.266 301.605, 114.530 303.147 C 116.439 303.837, 118 304.725, 118 305.121 C 118 305.516, 115.638 306.606, 112.750 307.543 C 104.239 310.304, 94.273 315.953, 91.502 319.587 C 87.569 324.743, 85.824 330.691, 85.778 339.096 C 85.651 362.399, 102.364 382.392, 133.925 396.693 C 150.459 404.185, 181.676 413.603, 210 419.646 C 216.387 421.008, 222.974 421.464, 236.500 421.479 C 252.759 421.498, 255.516 421.242, 265 418.830 C 281.507 414.631, 286.132 412.491, 303.354 401.082 C 312.234 395.199, 326.450 385.932, 334.945 380.488 C 343.439 375.044, 363.014 361.844, 378.445 351.155 C 393.875 340.465, 410.325 329.141, 415 325.990 C 426.052 318.540, 428.654 315.849, 432.393 308 C 435.052 302.417, 435.490 300.371, 435.495 293.502 C 435.500 285.734, 435.593 285.422, 438.750 282.649 C 444.247 277.818, 442.662 271.909, 434.793 267.894 C 431.663 266.297, 429.720 265.965, 426.416 266.460 C 422.725 267.014, 421.858 267.626, 420.307 270.775 C 417.767 275.932, 413.191 278.283, 405.341 278.464 L 398.907 278.612 395.032 285.056 C 392.901 288.600, 389.595 293.004, 387.686 294.843 C 384.561 297.851, 383.577 298.205, 377.857 298.383 C 368.466 298.676, 364.842 300.863, 358.312 310.182 C 355.239 314.567, 351.401 318.789, 349.648 319.714 C 347.613 320.786, 342.721 321.605, 335.816 322.028 C 324.270 322.736, 320 324.381, 320 328.120 C 320 330.819, 308.233 343.047, 300.675 348.203 C 283.177 360.139, 269.709 360.900, 251.542 350.977 C 244.097 346.911, 226.959 341.991, 220.319 342.013 C 218.218 342.020, 212.900 343.206, 208.500 344.648 C 203.489 346.291, 198.043 347.313, 193.924 347.385 C 185.239 347.537, 181.096 344.888, 176.061 335.966 L 172.412 329.500 164.391 329 C 156.672 328.519, 156.249 328.363, 153.181 324.863 L 149.992 321.227 139.746 320.821 C 133.553 320.575, 128.313 319.834, 126.500 318.946 C 122.257 316.869, 119.516 311.393, 120.389 306.739 L 121.077 303.072 125.504 306.451 C 131.113 310.733, 138.485 313.493, 149.394 315.398 C 160.098 317.266, 172.174 322.842, 180.934 329.961 C 184.473 332.837, 188.440 335.597, 189.750 336.095 C 193.319 337.452, 201.177 337.201, 214.100 335.318 L 225.700 333.627 239.100 338.396 C 246.470 341.019, 256.306 344.532, 260.958 346.203 C 271.844 350.113, 278.054 349.701, 289 344.341 C 295.042 341.383, 298.786 338.420, 308.256 329.103 C 314.722 322.742, 321.575 316.735, 323.484 315.756 C 325.394 314.776, 330.359 313.324, 334.518 312.528 C 344.144 310.686, 349.215 307.885, 361 297.901 C 371.163 289.292, 377.326 285.592, 383.408 284.451 C 386.059 283.954, 389.062 282.029, 393.353 278.076 C 396.734 274.961, 401.525 270.866, 404 268.976 C 406.475 267.086, 409.093 264.736, 409.818 263.754 C 410.985 262.172, 412.206 262.044, 420.540 262.630 C 431.179 263.378, 433 262.661, 433 257.722 C 433 255.354, 431.883 253.662, 427.914 250.013 L 422.829 245.337 427.664 243.520 C 436.717 240.118, 443.817 234.112, 447.785 226.500 C 449.917 222.409, 450.391 220.136, 450.391 214 C 450.391 202.728, 446.095 195.657, 433.782 186.663 C 426.245 181.158, 426.484 173.499, 434.486 164.125 C 436.997 161.184, 439.204 157.432, 439.569 155.483 C 440.607 149.950, 436.726 133.123, 432.366 124.256 C 426.791 112.919, 414.676 100.964, 402.500 94.783 C 388.435 87.643, 381.101 85.892, 363.500 85.469 C 355.250 85.270, 346.398 85.491, 343.829 85.960 M 258.276 106.511 C 245.352 109.320, 229.277 120.657, 224.251 130.508 C 222.020 134.882, 219.605 142.938, 220.313 143.646 C 220.557 143.890, 221.930 142.090, 223.363 139.644 C 226.816 133.751, 233.502 127.997, 241.216 124.280 C 251.893 119.135, 255.633 118.559, 279 118.467 C 290.825 118.420, 306.806 118.009, 314.513 117.552 C 336.686 116.239, 355.510 119.258, 370.702 126.565 C 379.081 130.595, 391.034 141.157, 394.800 147.858 L 397.084 151.921 391.792 150.106 C 380.583 146.260, 368.302 144.702, 349.500 144.741 C 311.204 144.819, 271.382 149.385, 228.686 158.592 C 169.944 171.260, 151.325 179.230, 131.364 200.251 C 118.355 213.951, 112.513 226.713, 109.560 247.883 C 108.702 254.035, 108 259.524, 108 260.082 C 108 260.639, 109.687 259.777, 111.750 258.167 C 124.158 248.482, 142.635 236.164, 149.648 232.902 C 175.125 221.049, 219.164 213.033, 234.545 217.448 C 245.885 220.703, 255.615 228.179, 263.099 239.387 C 266.246 244.098, 266.991 244.790, 266.430 242.478 C 263.817 231.710, 254.841 219.931, 243.490 212.372 C 237.209 208.189, 224.790 203.636, 215 201.926 C 210.875 201.205, 201.200 200.630, 193.500 200.648 C 168.650 200.706, 157.415 204.737, 142.676 218.884 C 133.746 227.456, 133.720 227.472, 137.544 222 C 144.571 211.946, 157.677 199.873, 166.557 195.273 C 179.441 188.599, 188.164 186.532, 203.500 186.518 C 219.690 186.503, 228.758 188.479, 241.285 194.750 C 256.542 202.388, 271.557 219.053, 277.043 234.438 L 278.803 239.377 280.902 232.583 C 285.592 217.398, 282.319 199.148, 273.130 189.250 C 268.892 184.685, 270.544 185.198, 278.837 191.022 C 290.117 198.943, 297.001 208.810, 298.531 219.250 C 298.914 221.863, 299.633 224, 300.129 224 C 300.625 224, 306.536 221.238, 313.265 217.863 C 330.077 209.430, 376.083 187.811, 389.684 181.951 C 395.836 179.301, 401.989 176.398, 403.359 175.501 C 405.764 173.924, 405.979 173.983, 409.675 177.211 C 411.779 179.049, 414.352 181.212, 415.394 182.018 C 417.126 183.358, 417.236 183.313, 416.683 181.492 C 416.350 180.396, 415.611 173.162, 415.042 165.416 C 413.888 149.719, 411.916 142.475, 406.626 134.500 C 390.972 110.898, 362.748 101.025, 327.128 106.690 C 313.726 108.822, 295.118 108.802, 284.140 106.644 C 274.250 104.699, 266.791 104.661, 258.276 106.511 M 409 191.430 C 409 194.425, 401.083 199.279, 373.911 212.941 C 341.683 229.146, 320.919 240.174, 303.500 250.339 C 275.225 266.839, 275.927 266.720, 258.516 257.943 C 247.374 252.326, 244.373 251.355, 217.255 244.603 C 199.040 240.066, 187.268 236.647, 186.040 235.537 C 183.780 233.491, 183.984 233.459, 167.500 238.496 C 150.150 243.799, 141.235 248.747, 131.148 258.671 C 126.555 263.191, 122.980 267.476, 123.205 268.194 C 123.940 270.546, 137.232 276.828, 151.260 281.454 C 158.828 283.950, 176.828 289.178, 191.260 293.072 C 205.692 296.967, 226.725 302.880, 238 306.213 C 273.718 316.771, 274.010 316.713, 313.736 291.167 C 346.274 270.243, 376.245 253.237, 409.349 236.917 C 430.014 226.729, 432.288 225.277, 434.602 220.802 C 439.226 211.861, 433.260 200.882, 421.129 196.005 C 418.033 194.760, 414.038 192.915, 412.250 191.904 C 409.739 190.485, 409 190.377, 409 191.430 M 405 304.051 C 402.525 305.658, 398.580 307.718, 396.234 308.628 C 392.956 309.901, 392.008 310.772, 392.140 312.392 C 392.542 317.343, 391.845 320.030, 389.411 322.923 C 387.044 325.737, 386.303 326, 380.752 326 C 375.045 326, 374.139 326.351, 365.591 331.879 C 360.591 335.112, 353.899 338.573, 350.720 339.570 C 345.833 341.104, 344.521 342.050, 342.220 345.697 C 340.724 348.068, 337.700 351.302, 335.500 352.883 C 330.574 356.422, 318.281 363, 316.593 363 C 315.701 363, 315.372 365.255, 315.426 370.993 C 315.467 375.389, 315.611 378.989, 315.747 378.993 C 315.883 378.997, 317.828 377.343, 320.070 375.318 C 324.080 371.695, 328 365.440, 328 362.664 C 328 361.679, 329.598 361.112, 333.250 360.802 C 340.203 360.212, 343.778 358.376, 354.492 349.894 C 359.432 345.984, 367.079 340.974, 371.487 338.761 C 382.495 333.234, 387.172 329.850, 390.270 325.168 C 392.316 322.077, 394.218 320.689, 398.706 319.012 C 405.142 316.607, 407.531 314.808, 409.602 310.802 C 411.070 307.963, 411.536 300.954, 410.250 301.064 C 409.837 301.099, 407.475 302.443, 405 304.051 M 109.225 337.121 C 109.932 348.458, 112.981 354.891, 121.332 362.666 C 137.056 377.307, 179.525 392.468, 214.451 395.910 C 232.509 397.690, 242.669 394.217, 254.971 382.060 L 262.500 374.620 249 373.828 C 233.023 372.891, 214.108 369.921, 199.234 366.015 C 185.914 362.516, 158.416 352.757, 138.229 344.362 C 120.113 336.830, 114.330 333.962, 111.098 330.908 L 108.696 328.638 109.225 337.121 M 285.565 380.500 C 284.264 387.626, 281.001 396.607, 277.988 401.359 C 274.640 406.637, 275.027 407.025, 280.161 403.537 C 286.691 399.100, 289.782 388.085, 287.048 379 C 286.355 376.695, 286.239 376.812, 285.565 380.500" stroke="yellow" fill="black" fill-rule="evenodd"/>
</svg>